# xmcd
#
# Track frame offsets: 
#        150
#        12533
#        24618
#        38530
#        48929
#        66483
#        76971
#        83146
#        89028
#        101399
#        113959
#        129934
#        141822
#        156769
#        173969
#        188419
#        202868
#        215006
#        224936
#        237535
#
# Disc length: 3348 seconds
#
# Revision: 1
# Processed by: cddbd v1.5.2PL0 Copyright (c) Steve Scherf et al.
# Submitted via: ExactAudioCopyFreeDBPlugin 1.0
#
DISCID=1c0d1214
DTITLE=Various Artist - Cooler Than Ice:  Arctic Records and the Rise
DTITLE=of Philly Soul [box set]
DYEAR=2012
DGENRE=Soul
TTITLE0=Barbara Mason - You Better Stop It
TTITLE1=Barbara Mason - Happy Girl
TTITLE2=Della Humphrey - (Girls Have Feelings) Just Like the Boys Do
TTITLE3=Della Humphrey - Over the Tracks
TTITLE4=The Ambassadors - Can't Take My Eyes Off of You
TTITLE5=The Ambassadors - A.W.O.L. (Away Without Love)
TTITLE6=Jimmy Bishop - (If You Could See Through) The Eyes of a Blackm
TTITLE6=an
TTITLE7=Jimmy Bishop - Mr. Charlie
TTITLE8=Honey and The Bees - Sunday Kind of Love
TTITLE9=Honey and The Bees - Baby, Do That Thing
TTITLE10=Della Humphrey - Will You Love Me Tomorrow
TTITLE11=Della Humphrey - Let's Wait Until Dark
TTITLE12=The Royal Five - Ain't No Big Thing (But It's Growing)
TTITLE13=The Royal Five - Peace of Mind (It's Just a Matter of Time)
TTITLE14=The Rotations - (Put a Dime On) D-9
TTITLE15=The Rotations - (Put a Nickel On) D-9
TTITLE16=The Three Strangers - Find My Baby - Part I
TTITLE17=The Three Strangers - Find My Baby - Part II
TTITLE18=The Rotations - A Changed Man
TTITLE19=The Rotations - Heartaches
EXTD=
EXTT0=
EXTT1=
EXTT2=
EXTT3=
EXTT4=
EXTT5=
EXTT6=
EXTT7=
EXTT8=
EXTT9=
EXTT10=
EXTT11=
EXTT12=
EXTT13=
EXTT14=
EXTT15=
EXTT16=
EXTT17=
EXTT18=
EXTT19=
PLAYORDER=
